PathFileType	4	(X/Y/Z)	/Users/itak/Documents/Research/Walk-IL/dataset/trc/00185_00008.trc
DataRate	CameraRate	NumFrames	NumMarkers	Units	OrigDataRate	OrigDataStartFrame	OrigNumFrames
100.000000	100.000000	4	53	mm	100.000000	396	793
Frame#	Time	RPSI			LPSI			L3			STRN			T10			C7			CLAV			RBAK			LBAK			LSHO			LUPA			LAEL			LAOL			LWTS			LWPS			LFRA			LIFD			LHPS			LHTS			RSHO			RUPA			RAEL			RAOL			RWTS			RWPS			RFRA			RIFD			RHTS			RHPS			RBHD			LFHD			RFHD			LBHD			LHIP			RHIP			RASI			LASI			LKNE			LTHI			LANK			LTIP			LTOE			LMT1			LMT5			LHEE			RKNE			RTHI			RANK			RTIP			RTOE			RMT1			RMT5			RHEE			
		X1	Y1	Z1	X2	Y2	Z2	X3	Y3	Z3	X4	Y4	Z4	X5	Y5	Z5	X6	Y6	Z6	X7	Y7	Z7	X8	Y8	Z8	X9	Y9	Z9	X10	Y10	Z10	X11	Y11	Z11	X12	Y12	Z12	X13	Y13	Z13	X14	Y14	Z14	X15	Y15	Z15	X16	Y16	Z16	X17	Y17	Z17	X18	Y18	Z18	X19	Y19	Z19	X20	Y20	Z20	X21	Y21	Z21	X22	Y22	Z22	X23	Y23	Z23	X24	Y24	Z24	X25	Y25	Z25	X26	Y26	Z26	X27	Y27	Z27	X28	Y28	Z28	X29	Y29	Z29	X30	Y30	Z30	X31	Y31	Z31	X32	Y32	Z32	X33	Y33	Z33	X34	Y34	Z34	X35	Y35	Z35	X36	Y36	Z36	X37	Y37	Z37	X38	Y38	Z38	X39	Y39	Z39	X40	Y40	Z40	X41	Y41	Z41	X42	Y42	Z42	X43	Y43	Z43	X44	Y44	Z44	X45	Y45	Z45	X46	Y46	Z46	X47	Y47	Z47	X48	Y48	Z48	X49	Y49	Z49	X50	Y50	Z50	X51	Y51	Z51	X52	Y52	Z52	X53	Y53	Z53	

397	3.96	254.8015441894531	1024.148559570312	-652.9033203125	222.7984313964844	1013.684509277344	-536.8001708984375	240.0931396484375	1053.479858398438	-599.0977783203125	-20.8786678314209	1251.753295898438	-638.82421875	269.6826477050781	1217.438110351562	-587.99755859375	185.287841796875	1480.928344726562	-574.5180053710938	-1.955599784851074	1365.328125	-614.9697265625	282.2191772460938	1319.884887695312	-680.4318237304688	177.4308166503906	1449.567504882812	-475.2946166992188	91.03550720214844	1425.72216796875	-409.9572143554688	130.4100494384766	1290.439453125	-345.4337768554688	141.2921295166016	1073.813842773438	-345.4708557128906	186.5551910400391	1066.294799804688	-421.1196899414062	33.49536895751953	843.5185546875	-391.3654174804688	115.4082183837891	819.8699340820312	-357.0936584472656	131.1209716796875	961.4798583984375	-340.7960510253906	16.33062744140625	661.6289672851562	-428.2860717773438	94.49687194824219	751.3919067382812	-365.0191650390625	23.14240074157715	763.4808349609375	-376.3128967285156	151.9620513916016	1467.544677734375	-761.8507690429688	182.1556549072266	1408.741577148438	-833.1439208984375	188.6778106689453	1137.838623046875	-940.7651977539062	179.2827453613281	1106.656860351562	-845.6266479492188	16.31705856323242	938.093994140625	-989.7802734375	95.89363861083984	917.1714477539062	-1027.423828125	157.8287353515625	1074.0126953125	-976.6660766601562	-28.97555923461914	755.4409790039062	-1009.451538085938	-22.35896492004395	854.2839965820312	-1023.071899414062	55.14632797241211	842.3642578125	-1047.69091796875	118.7893905639648	1637.832763671875	-665.8055419921875	-29.61182403564453	1680.444213867188	-511.6730041503906	-47.42194747924805	1690.806762695312	-641.4819946289062	143.1603088378906	1635.8583984375	-531.2333984375	90.79159545898438	947.5501098632812	-448.4620971679688	140.9578857421875	984.760498046875	-815.8320922851562	46.4917106628418	1006.952087402344	-788.6600341796875	-13.5959358215332	990.150634765625	-537.6557006835938	-124.6752395629883	495.4213256835938	-545.9730224609375	-60.55912017822266	616.2413330078125	-497.0053405761719	-257.2447509765625	45.8195686340332	-595.42431640625	-185.8667297363281	276.3633728027344	-556.963134765625	-445.2389221191406	155.2292327880859	-595.94287109375	-410.6693115234375	130.4375457763672	-648.361083984375	-352.8102722167969	86.47470855712891	-548.1318359375	-218.5446166992188	29.13502311706543	-670.461181640625	239.8937072753906	499.3110046386719	-779.6499633789062	137.8942108154297	752.3071899414062	-832.32763671875	480.3092956542969	62.02577209472656	-709.2949829101562	263.795166015625	377.3201599121094	-759.8919067382812	263.9957885742188	39.56317520141602	-764.61474609375	295.4993896484375	43.72280883789062	-703.0447998046875	394.3210754394531	33.09758377075195	-784.0215454101562	499.9606628417969	77.35920715332031	-628.2245483398438	
398	3.97	242.8726654052734	1023.36474609375	-653.148193359375	210.9393920898438	1012.643371582031	-537.1031494140625	228.3446350097656	1052.356201171875	-599.433349609375	-32.22875213623047	1251.279541015625	-637.9068603515625	258.4967956542969	1216.140625	-588.2133178710938	174.709228515625	1479.814208984375	-573.500732421875	-13.07032203674316	1364.661865234375	-613.6593017578125	271.0755920410156	1318.919067382812	-680.2736206054688	166.9962463378906	1447.93798828125	-474.2750244140625	81.0213623046875	1424.159057617188	-408.7382202148438	120.7917785644531	1288.558471679688	-344.9690551757812	132.1425476074219	1072.081665039062	-346.2630004882812	176.8745880126953	1065.102172851562	-422.3076782226562	27.41643905639648	840.224609375	-391.6934814453125	109.953971862793	817.9537353515625	-358.1146850585938	123.4530258178711	959.6928100585938	-341.7537841796875	13.19389915466309	658.0790405273438	-428.9808654785156	90.14678955078125	749.1033935546875	-365.9813842773438	18.56035423278809	759.9500732421875	-376.8312377929688	140.7192840576172	1466.9765625	-760.843505859375	170.6870574951172	1408.151123046875	-832.2432250976562	177.1302032470703	1136.948120117188	-939.1007690429688	167.7476196289062	1105.988647460938	-843.7553100585938	4.897014141082764	936.8431396484375	-987.5574951171875	84.53208923339844	915.9110717773438	-1025.128173828125	146.2694702148438	1072.974609375	-974.8318481445312	-39.88362884521484	753.9282836914062	-1006.520935058594	-33.63088989257812	852.748779296875	-1020.476867675781	43.89163970947266	840.9285888671875	-1045.09912109375	107.93994140625	1637.088134765625	-664.3968505859375	-39.42488861083984	1679.611083984375	-509.2536926269531	-58.09064865112305	1690.400390625	-639.0093994140625	133.1775207519531	1634.848510742188	-529.9808959960938	78.47969055175781	946.9566650390625	-448.8387756347656	129.1733245849609	984.2039794921875	-816.2276000976562	35.28336715698242	1006.381896972656	-789.0906982421875	-25.67037010192871	989.5153198242188	-538.2015380859375	-136.2366485595703	494.5728149414062	-544.9708862304688	-73.05974578857422	616.1635131835938	-497.115966796875	-261.1585083007812	42.82321929931641	-594.1780395507812	-194.2729187011719	273.9291076660156	-555.9807739257812	-451.1971740722656	147.7545013427734	-591.1799926757812	-416.95849609375	123.9968032836914	-644.2006225585938	-355.996337890625	81.81376647949219	-544.9548950195312	-223.6326751708984	26.58974647521973	-669.560546875	230.8182525634766	499.4390563964844	-781.4512939453125	127.1221542358398	751.9445190429688	-833.2122802734375	479.360107421875	65.78260803222656	-710.5084838867188	256.7071838378906	377.4761962890625	-761.748046875	263.8109741210938	39.48653793334961	-764.669677734375	295.165283203125	43.94200134277344	-703.318115234375	393.5245666503906	33.72042465209961	-784.3215942382812	498.9062194824219	82.88996124267578	-629.6860961914062	
399	3.98	230.5337829589844	1022.721435546875	-653.3497314453125	198.7168121337891	1011.811584472656	-537.326171875	216.2106781005859	1051.369262695312	-599.7161865234375	-43.76739501953125	1251.10009765625	-636.8870849609375	247.0547485351562	1214.962280273438	-588.2430419921875	164.0449066162109	1478.869384765625	-572.2730712890625	-24.34391784667969	1364.276489257812	-612.2219848632812	259.7925109863281	1318.055053710938	-679.8740234375	156.4490051269531	1446.503662109375	-473.0846252441406	70.80353546142578	1422.794555664062	-407.3638916015625	110.8989944458008	1286.88671875	-344.2970581054688	122.7586059570312	1070.585693359375	-346.8330993652344	166.9720458984375	1064.130126953125	-423.2533569335938	21.20859336853027	837.1536865234375	-391.8074035644531	104.429817199707	816.3164672851562	-358.90869140625	115.6136932373047	958.1551513671875	-342.4743041992188	10.19458484649658	654.755126953125	-429.4486389160156	85.77189636230469	747.0782470703125	-366.7417602539062	13.98263454437256	756.6345825195312	-377.126708984375	129.4770050048828	1466.615356445312	-759.6338500976562	159.2690124511719	1407.757446289062	-831.1085815429688	165.787353515625	1136.208984375	-937.122802734375	156.2966918945312	1105.53173828125	-841.5916748046875	-6.317378520965576	935.7284545898438	-985.0757446289062	73.42259979248047	914.743896484375	-1022.477416992188	134.9439086914062	1072.062255859375	-972.6988525390625	-50.51817321777344	752.52490234375	-1003.159851074219	-44.65855026245117	851.3140258789062	-1017.567504882812	32.87738037109375	839.5548095703125	-1042.102905273438	97.03313446044922	1636.5537109375	-662.798095703125	-49.35912322998047	1679.013916015625	-506.7073059082031	-68.81340789794922	1690.237182617188	-636.4158935546875	123.0851593017578	1634.05078125	-528.529541015625	65.74288177490234	946.6893920898438	-449.0583801269531	116.9397201538086	983.7938232421875	-816.576171875	23.59268951416016	1006.050048828125	-789.4117431640625	-38.1335563659668	989.1823120117188	-538.6048583984375	-147.533203125	493.6235961914062	-543.6603393554688	-85.57115936279297	616.2587280273438	-497.0068664550781	-263.4889526367188	39.75608825683594	-593.3541259765625	-201.8843383789062	271.2532348632812	-555.0394287109375	-455.879150390625	138.8626708984375	-585.4952392578125	-422.2211303710938	116.492805480957	-639.415283203125	-357.379638671875	76.36532592773438	-541.67333984375	-227.3467712402344	24.43287467956543	-669.2833251953125	221.2467498779297	499.7184448242188	-783.3723754882812	115.865104675293	751.747314453125	-834.0299072265625	478.1461486816406	69.93319702148438	-711.7816772460938	249.2269287109375	377.8282470703125	-763.7916259765625	263.6148986816406	39.42631912231445	-764.7176513671875	294.7374877929688	44.21805953979492	-703.61083984375	392.6404113769531	34.46776580810547	-784.6513061523438	497.4200744628906	88.98079681396484	-631.2368774414062	
400	3.99	217.7901611328125	1022.256652832031	-653.5173950195312	186.1418609619141	1011.23583984375	-537.4555053710938	203.6897583007812	1050.561645507812	-599.9402465820312	-55.49123382568359	1251.227294921875	-635.7623291015625	235.3604888916016	1213.923828125	-588.0750732421875	153.3056182861328	1478.117919921875	-570.8453369140625	-35.77521514892578	1364.190063476562	-610.666748046875	248.3851165771484	1317.305541992188	-679.2316284179688	145.7926330566406	1445.2783203125	-471.7287902832031	60.38742446899414	1421.635986328125	-405.8385925292969	100.7455139160156	1285.429809570312	-343.4270629882812	113.1392593383789	1069.324829101562	-347.17578125	156.8458251953125	1063.370483398438	-423.9510498046875	14.85906410217285	834.3220825195312	-391.7049255371094	98.80546569824219	814.9683837890625	-359.4723510742188	107.588996887207	956.87109375	-342.9540710449219	7.286792278289795	651.6918334960938	-429.6883544921875	81.34091186523438	745.3431396484375	-367.3043212890625	9.377508163452148	753.5611572265625	-377.1984558105469	118.2416152954102	1466.46728515625	-758.2359619140625	147.904052734375	1407.554321289062	-829.7490234375	154.6382293701172	1135.623413085938	-934.8598022460938	144.901611328125	1105.287475585938	-839.1867065429688	-17.3337459564209	934.761962890625	-982.3486328125	62.54415512084961	913.6834716796875	-1019.497131347656	123.8414306640625	1071.28076171875	-970.2901000976562	-60.88777160644531	751.2484130859375	-999.3855590820312	-55.45027542114258	849.9989013671875	-1014.364501953125	22.08381462097168	838.2612915039062	-1038.73046875	86.07286071777344	1636.259033203125	-661.0093994140625	-59.42322158813477	1678.674194335938	-504.0330810546875	-79.59268951416016	1690.314453125	-633.6914672851562	112.8835067749023	1633.494873046875	-526.8804321289062	52.66939544677734	946.76611328125	-449.1025695800781	104.2392044067383	983.5472412109375	-816.8754272460938	11.32038974761963	1005.977600097656	-789.6077880859375	-50.96016311645508	989.15625	-538.8400268554688	-158.3924713134766	492.583740234375	-542.0817260742188	-97.88139343261719	616.4328002929688	-496.6354370117188	-264.7279968261719	36.9503059387207	-592.9974365234375	-208.8381652832031	268.525390625	-554.1546020507812	-459.5652160644531	129.0243988037109	-578.9342651367188	-426.8216552734375	108.3199081420898	-634.0601806640625	-357.4627380371094	70.45283508300781	-538.3958129882812	-230.1837768554688	22.98876190185547	-669.675537109375	211.1150360107422	500.138671875	-785.4482421875	104.0937576293945	751.7276000976562	-834.7717895507812	476.6007690429688	74.50236511230469	-713.1220703125	241.3001403808594	378.3765258789062	-766.0629272460938	263.4263610839844	39.39204406738281	-764.7553100585938	294.1993103027344	44.5417366027832	-703.9218139648438	391.6741027832031	35.34028625488281	-785.0191040039062	495.3984985351562	95.64521789550781	-632.8873901367188	
